<?xml version="1.0" encoding="UTF-8"?>
<!DOCTYPE svg PUBLIC "-//W3C//DTD SVG 1.1//EN" "http://www.w3.org/Graphics/SVG/1.1/DTD/svg11.dtd">
<!-- Creator: CorelDRAW -->
<svg xmlns="http://www.w3.org/2000/svg" xml:space="preserve" width="80px" height="72px" version="1.1" style="shape-rendering:geometricPrecision; text-rendering:geometricPrecision; image-rendering:optimizeQuality; fill-rule:evenodd; clip-rule:evenodd"
viewBox="0 0 12.4 11.23"
 xmlns:xlink="http://www.w3.org/1999/xlink"
 xmlns:xodm="http://www.corel.com/coreldraw/odm/2003">
 <defs>
  <style type="text/css">
   <![CDATA[
    .fil0 {fill:#020202}
   ]]>
  </style>
 </defs>
 <g id="Layer_x0020_1">
  <metadata id="CorelCorpID_0Corel-Layer"/>
  <g id="_2722766678432">
   <path class="fil0" d="M11.39 5.35c0.04,0.28 0.16,0.4 0.05,0.62 -0.26,0.07 -0.84,-0.33 -1.24,-0.51 -0.15,0.08 -0.38,0.42 -0.5,0.55 -0.08,0.09 -0.15,0.17 -0.23,0.27 -0.09,0.11 -0.13,0.22 -0.32,0.13 -0.13,-0.08 -0.07,-0.27 -0.11,-0.55 -0.01,-0.16 -0.03,-0.34 -0.1,-0.51l-1.59 0.01 0 5.85c0.86,0.02 1.74,0 2.6,0 2.04,0 1.95,0.17 1.95,-0.66 -0.01,-1.72 0.04,-3.48 -0.01,-5.19l-0.5 -0.01z"/>
   <path class="fil0" d="M0.96 5.97c-0.11,-0.22 0,-0.35 0.05,-0.62l-0.51 0.01c-0.01,1.73 0,3.46 0,5.19 0,0.66 -0.02,0.67 0.65,0.66 1.27,0 2.65,0.03 3.9,0l0 -5.86 -1.59 0.02c-0.08,0.15 -0.1,0.35 -0.11,0.53 -0.02,0.23 0.03,0.41 -0.1,0.51 -0.19,0.09 -0.23,-0.02 -0.32,-0.13l-0.7 -0.82c-0.38,0.07 -0.92,0.6 -1.27,0.51z"/>
   <polygon class="fil0" points="5.41,11.21 6.99,11.21 6.98,2.78 5.42,2.78 5.41,11.06 "/>
   <path class="fil0" d="M7.36 1.1l-0.01 1.04c0.84,-0.23 0.99,-0.45 2.2,-0.57 0.57,-0.06 1.25,-0.02 1.78,0.2 0.19,0.09 0.31,0.2 0.47,0.27 0.23,-1.38 -0.15,-2.22 -1.66,-2.01 -1.11,0.15 -1.98,0.62 -2.78,1.07z"/>
   <path class="fil0" d="M0.6 2.04c0.14,-0.06 0.25,-0.17 0.44,-0.26 0.57,-0.25 1.17,-0.28 1.81,-0.22 0.87,0.08 1.46,0.35 2.19,0.58l0.01 -1.04c-0.8,-0.45 -1.67,-0.91 -2.76,-1.06 -1.5,-0.22 -1.96,0.6 -1.69,2z"/>
   <path class="fil0" d="M7.89 2.94c0.2,0.32 0.85,0.73 1.3,1.99 0.08,0.23 0.15,0.68 0.22,0.84 0.17,-0.1 0.53,-0.68 0.67,-0.72 0.14,-0.04 0.77,0.35 0.94,0.41 -0.14,-0.66 -0.64,-1.42 -0.97,-1.86 -0.15,-0.21 -0.23,-0.15 -0.52,-0.2 -0.19,-0.04 -0.38,-0.08 -0.56,-0.13 -0.34,-0.09 -0.77,-0.28 -1.08,-0.33z"/>
   <path class="fil0" d="M7.65 2.43c0.67,0.36 2.31,0.81 3.19,0.65 0.33,-0.06 0.76,-0.26 0.82,-0.52 0.05,-0.24 -0.47,-0.47 -0.72,-0.54 -0.95,-0.28 -2.73,0.05 -3.29,0.41z"/>
   <path class="fil0" d="M3 5.77c0.09,-0.63 0.3,-1.14 0.56,-1.61 0.4,-0.7 0.65,-0.82 0.94,-1.21l-1.1 0.33c-0.68,0.17 -0.87,0.07 -1.07,0.34 -0.33,0.47 -0.81,1.17 -0.96,1.84 0.19,-0.06 0.81,-0.47 0.97,-0.4 0.14,0.06 0.52,0.66 0.66,0.71z"/>
   <path class="fil0" d="M4.72 2.44l-0.04 -0.04c-0.38,-0.23 -1.64,-0.46 -2.03,-0.49 -0.37,-0.04 -0.83,0.01 -1.17,0.1 -1.14,0.3 -0.8,0.91 0.01,1.05 0.88,0.16 2.64,-0.26 3.23,-0.62z"/>
   <path class="fil0" d="M10.43 3.49c0.12,0.22 0.3,0.44 0.45,0.72 0.14,0.25 0.27,0.5 0.37,0.78 0.68,0.03 1.15,0.11 1.15,-0.35l0 -1.48c0,-0.32 -0.07,-0.41 -0.4,-0.41 -0.07,0.02 -0.15,0.33 -0.62,0.54 -0.32,0.15 -0.58,0.15 -0.95,0.2z"/>
   <path class="fil0" d="M1.15 4.99c0.28,-0.79 0.58,-1.04 0.82,-1.5 -0.38,-0.05 -0.62,-0.05 -0.96,-0.2 -0.41,-0.17 -0.38,-0.28 -0.62,-0.54 -0.3,0 -0.39,0.08 -0.39,0.37l0 1.52c0,0.27 0.12,0.36 0.39,0.36 0.25,0 0.51,0 0.76,-0.01z"/>
   <polygon class="fil0" points="5.41,2.39 6.98,2.39 6.99,1.07 5.41,1.06 "/>
   <path class="fil0" d="M5.05 2.97c-0.44,0.29 -1.27,1.31 -1.47,2.02l1.47 0 0 -2.02z"/>
   <path class="fil0" d="M7.35 5l1.47 -0.01c-0.22,-0.73 -1.02,-1.72 -1.47,-2.02l0 2.03z"/>
  </g>
 </g>
</svg>
