<?xml version="1.0" encoding="UTF-8"?>
<!DOCTYPE svg PUBLIC "-//W3C//DTD SVG 1.1//EN" "http://www.w3.org/Graphics/SVG/1.1/DTD/svg11.dtd">
<!-- Creator: CorelDRAW -->
<svg xmlns="http://www.w3.org/2000/svg" xml:space="preserve" width="50px" height="17px" version="1.1" style="shape-rendering:geometricPrecision; text-rendering:geometricPrecision; image-rendering:optimizeQuality; fill-rule:evenodd; clip-rule:evenodd"
viewBox="0 0 14.23 4.72"
 xmlns:xlink="http://www.w3.org/1999/xlink"
 xmlns:xodm="http://www.corel.com/coreldraw/odm/2003">
 <defs>
  <style type="text/css">
   <![CDATA[
    .fil0 {fill:#332C2B}
   ]]>
  </style>
 </defs>
 <g id="Layer_x0020_1">
  <metadata id="CorelCorpID_0Corel-Layer"/>
  <g id="_2701610120880">
   <path class="fil0" d="M4.98 2.9c-0.1,-0.16 0.01,-0.52 0.03,-0.7 -0.31,0.13 -0.98,1.32 -1.08,1.38l0.1 -0.31c-0.13,0.07 -0.09,0.1 -0.18,0.17 0,-0.01 0,-0.02 0,-0.02 -0.01,0.01 -0.02,-0.13 -0.05,-0.17l-0.08 0.24c0,0 -0.01,-0.02 -0.01,-0.01 -0.01,0.02 -0.04,-0.11 -0.12,-0.15l0 0.28c-0.08,-0.03 -0.13,-0.08 -0.18,-0.13 0.02,0.11 0.07,0.13 0.08,0.28l-0.16 0.05c-0.29,0.05 -0.3,0.04 -0.58,0.06 -2.09,0.14 -3.29,-1.8 -2.04,-2.96 1.09,-1.01 2.61,-0.29 3.78,0.28l0.86 0.43c0.08,0.04 0.21,0.09 0.27,0.16 -0.45,0.38 -0.49,0.8 -0.64,1.12zm6.41 -2c0.25,0 0.47,0.09 0.71,0.03 0.32,-0.09 0.3,-0.14 0.63,0 0.38,0.15 0.67,0.38 0.91,0.7 0.95,1.29 -0.34,3.24 -2.99,2.23 -0.4,-0.15 -0.77,-0.32 -1.11,-0.5l-0.98 -0.51c-0.06,-0.04 -0.03,-0.02 -0.06,-0.05 0.14,-0.41 1.12,-0.82 1.22,-0.89 0.11,-0.09 0.05,-0.01 0.08,-0.11 -0.09,-0.01 -0.15,-0.04 -0.23,-0.07 0,0 -0.09,-0.03 -0.1,-0.03 -0.08,-0.05 -0.07,-0.05 -0.1,-0.1 1.21,0.09 0.66,-0.28 1.92,-0.5 0.15,-0.03 0.24,-0.01 0.32,-0.07l-0.22 -0.13zm-6.95 2.54c0.75,-0.2 0.87,-0.12 1.77,-0.48 1.36,-0.54 2.84,-2.07 4.71,-2.04 -0.09,0.06 -0.34,0.08 -0.47,0.11 -0.16,0.03 -0.29,0.07 -0.44,0.12 -1.77,0.56 -2.4,1.41 -3.7,1.91 -0.41,0.15 -1.37,0.4 -1.87,0.38zm-4.44 -1.54l0 0.48c0.01,0.02 0.02,0.02 0.03,0.06 0.11,0.26 0.06,0.41 0.42,0.85 0.45,0.53 1.1,0.8 1.82,0.84 0.21,0.01 0.42,-0.03 0.62,-0.04 0.23,-0.03 0.38,-0.08 0.6,-0.1l-0.08 0.23c0.13,-0.04 0.09,-0.09 0.19,-0.1l0 0.27c0.16,-0.17 0.04,-0.15 0.14,-0.2l0.08 0.26c0.04,-0.07 0.04,-0.22 0.05,-0.32l0.08 0.01c0,0 0.01,0 0.01,-0.01 -0.02,-0.09 -0.05,-0.11 -0.06,-0.21 0.11,0.02 0.61,0.57 1.02,0.69 -0.03,-0.13 -0.13,-0.19 -0.16,-0.4 0.09,0.02 0.12,0.08 0.19,0.16 0.47,0.45 0.65,0.4 1.21,0.18 0.08,-0.04 0.16,-0.07 0.24,-0.11 0.1,-0.05 0.18,-0.07 0.24,-0.14 -0.11,-0.11 -0.39,-0.19 -0.5,-0.48 0.1,0.03 0.15,0.12 0.48,0.22 0.26,0.08 0.36,0 0.53,-0.11 0.24,-0.15 0.76,-0.48 0.84,-0.65l-0.16 -0.08c-0.16,-0.07 -0.29,-0.2 -0.34,-0.38 0.16,0.05 0.21,0.12 0.45,0.16 0.22,0.03 0.26,0.06 0.44,0.16 0.27,0.14 0.53,0.26 0.82,0.38 1.11,0.46 2.75,1.05 3.93,0.56 0.98,-0.4 1,-1.15 1.1,-1.33l0 -0.43c-0.09,-0.17 -0.1,-0.96 -1.14,-1.51 -0.21,-0.12 -0.41,-0.16 -0.63,-0.25 -0.74,-0.3 -0.77,-0.41 -1.65,-0.55 -0.23,-0.04 -0.33,0.05 -0.57,0.3l-0.22 0.25c0.01,-0.29 0.22,-0.35 0.33,-0.55 -0.75,0.07 -0.99,0.18 -1.5,0.67 -0.06,0.06 -0.1,0.1 -0.17,0.18 -0.04,0.06 -0.11,0.16 -0.17,0.19 0.04,-0.13 0.1,-0.23 0.17,-0.33 0.07,-0.1 0.19,-0.2 0.23,-0.31 -0.31,0.04 -1.01,0.42 -1.26,0.56 -0.41,0.24 -0.49,0.3 -0.74,0.64 -0.06,0.08 -0.11,0.23 -0.24,0.21 0.01,-0.17 0.22,-0.38 0.23,-0.54 -0.51,0.07 -0.63,0.34 -0.96,0.18 -0.72,-0.37 -1.94,-0.94 -2.67,-1.13 -0.75,-0.2 -1.52,-0.22 -2.15,0.14 -1.06,0.6 -1.02,1.31 -1.12,1.43z"/>
  </g>
 </g>
</svg>
