<?xml version="1.0" encoding="UTF-8"?>
<!DOCTYPE svg PUBLIC "-//W3C//DTD SVG 1.1//EN" "http://www.w3.org/Graphics/SVG/1.1/DTD/svg11.dtd">
<!-- Creator: CorelDRAW -->
<svg xmlns="http://www.w3.org/2000/svg" xml:space="preserve" width="500px" height="97px" version="1.1" style="shape-rendering:geometricPrecision; text-rendering:geometricPrecision; image-rendering:optimizeQuality; fill-rule:evenodd; clip-rule:evenodd"
viewBox="0 0 53.13 10.34"
 xmlns:xlink="http://www.w3.org/1999/xlink"
 xmlns:xodm="http://www.corel.com/coreldraw/odm/2003">
 <defs>
  <style type="text/css">
   <![CDATA[
    .fil0 {fill:#645B54}
   ]]>
  </style>
 </defs>
 <g id="Layer_x0020_1">
  <metadata id="CorelCorpID_0Corel-Layer"/>
  <g id="_2407017702080">
   <path class="fil0" d="M26.58 6.94c0.35,0.44 0.65,0.77 0.79,1.46 0.14,0.74 -0.14,1.46 -0.62,1.71 -0.94,0.49 -0.91,-2.01 -0.17,-3.17zm2.1 -0.24c-0.23,-0.85 1.61,-1.34 2.49,-1.26 -0.18,0.25 -0.66,0.68 -1.01,0.89 -0.41,0.25 -0.93,0.54 -1.48,0.37zm-2.34 -0.57c-0.36,-0.13 -1.01,-1.11 -1.25,-1.51 -0.15,-0.25 -0.27,-0.39 -0.11,-0.64 0.34,-0.49 1.37,-1.46 2.23,-1.53 0.5,0.48 0.16,1.35 -0.06,1.95 -0.16,0.42 -0.6,1.44 -0.81,1.73zm-1.58 -2.39c-0.45,-0.35 -0.21,-1.86 0.03,-2.34 0.61,-1.22 2.81,-1.85 3.61,-0.3 0.53,1.04 0.04,2.07 0.13,2.47 0.35,0.07 0.32,-0.16 0.49,-0.4 0.23,-0.33 1.24,-0.87 1.65,-1.02 2.01,-0.72 2.16,1.12 1.09,2.61 -0.44,0.62 -0.33,0.45 -1.18,0.55 -0.53,0.07 -1.01,0.17 -1.42,0.4 -0.32,0.18 -0.81,0.47 -0.74,0.99 0.66,0.52 1.82,-0.14 2.28,-0.49 0.15,-0.12 0.28,-0.23 0.42,-0.34 0.46,-0.34 0.31,-0.61 1.64,-0.19 2.79,0.88 15.05,3.38 18.45,1.56 0.99,-0.53 1.98,-1.54 1.92,-2.72 -0.02,-0.47 -0.26,-0.85 -0.77,-0.67 -0.07,0.12 -0.03,-0.06 0,0.08 0.03,0.12 0.09,0.08 0.1,0.32 0.01,0.13 -0.03,0.34 -0.07,0.47 -1.42,5.53 -16.33,1.23 -20.58,0.57 0.01,-0.21 0.07,-0.21 0.21,-0.37 1.63,-1.97 0.54,-3.72 -1.5,-2.92 -0.69,0.26 -1.1,0.72 -1.46,0.86 0.17,-1.27 -0.03,-2.05 -0.87,-2.54 -1.51,-0.9 -5.29,0.05 -3.81,3.6 0.13,0.32 0.07,0.29 -0.23,0.86l-0.18 0.25c-0.61,-1.59 -3.03,-1.64 -2.92,0.2 0.04,0.66 0.69,1.47 0.97,1.75 0.48,0.47 1.02,0.74 1.63,1.03 -0.12,0.15 -0.64,0.28 -1.41,0.18 -1.3,-0.19 -3.3,-0.79 -5.16,-1.18 -3.82,-0.81 -8.21,-1.29 -12.09,-1.6 -1.6,-0.13 -3.12,-0.08 -4.06,0.44 -2.17,1.21 0.05,2.94 0.65,2.17 -0.39,-0.14 -0.5,0.13 -0.69,-0.45 -0.26,-0.83 0.4,-1.62 1.54,-1.74 1.68,-0.19 9.47,0.45 14.3,1.41 1.75,0.35 4,0.98 5.58,1.14 0.9,0.08 1.05,-0.05 1.73,-0.38l0.08 -0.05c-0.71,-0.17 -1.57,-0.99 -1.92,-1.41 -1.7,-2 0.4,-3.82 1.47,-1.15 0.06,0.15 0.15,1 0.49,0.71 0.17,-0.16 0,-0.93 0.49,-1.52l0.71 0.97c0.3,0.37 0.53,0.52 0.81,0.81 0.02,0.36 -0.25,0.75 -0.37,1.11 -1.27,3.7 2.23,3.57 1.88,1.04 -0.05,-0.38 -0.2,-0.74 -0.37,-1.04 -0.79,-1.37 -0.88,-0.11 0.24,-2.67 0.21,-0.49 0.63,-1.49 0.43,-2.09 -0.27,-0.77 -1.29,-0.42 -1.81,-0.15 -0.95,0.49 -1,0.8 -1.41,1.18z"/>
  </g>
 </g>
</svg>
